PathFileType	4	(X/Y/Z)	C:\Users\WrightLab\Desktop\Jo\P3_9.trc
DataRate	CameraRate	NumFrames	NumMarkers	Units	OrigDataRate	OrigDataStartFrame	OrigNumFrames
100.00	100.00	       8	19	mm	100.00	335	       535
Frame#	Time	Headset_Front			Headset_Back			Headset_Left			Headset_Right			Left_Shoulder			Right_Shoulder			Sternum			C7			Left Elbow			Right Elbow			Left Wrist			Right Wrist			Left ASIS			Right ASIS			S2			Left Knee			Right Knee			Left Ankle			Right Ankle			
		X1	Y1	Z1	X2	Y2	Z2	X3	Y3	Z3	X4	Y4	Z4	X5	Y5	Z5	X6	Y6	Z6	X7	Y7	Z7	X8	Y8	Z8	X9	Y9	Z9	X10	Y10	Z10	X11	Y11	Z11	X12	Y12	Z12	X13	Y13	Z13	X14	Y14	Z14	X15	Y15	Z15	X16	Y16	Z16	X17	Y17	Z17	X18	Y18	Z18	X19	Y19	Z19	

335	3.340	-512.11041	1399.72766	-180.25195	-542.02136	1617.27625	30.78750	-637.48425	1524.05017	-66.10964	-418.09219	1473.28674	-86.50806	-696.97754	1323.98608	151.69243	-371.94937	1336.69983	11.31743	-587.08002	1206.69238	-33.45416	-515.18762	1386.56604	121.41370	-725.86768	991.36517	218.77478	-239.01204	1015.79083	-46.05899	-761.60040	800.59467	139.39268	-217.05008	885.34100	-230.99571	-661.81128	852.53705	37.85461	-451.35297	929.77240	169.27574	-439.47232	856.60596	-80.69621	-734.55542	458.66537	-20.43177	-432.84497	423.42291	18.96732	-765.54626	130.59785	-40.79901	-361.90540	112.47518	135.86421	
336	3.350	-515.48737	1397.65112	-186.97614	-547.53351	1615.85852	22.74594	-642.37555	1522.22717	-74.82224	-421.51950	1471.39526	-94.09667	-703.12988	1322.41443	143.07245	-376.80310	1335.15613	5.35412	-591.41162	1204.92981	-41.07391	-520.34479	1383.93628	114.98552	-732.51953	990.06848	210.63301	-242.16010	1014.63031	-49.91209	-767.28442	798.64471	131.55595	-218.88600	883.31989	-234.21603	-667.09802	850.82983	27.87598	-458.71503	928.21741	162.66095	-442.68631	855.10919	-85.69510	-738.18146	456.15277	-26.22954	-433.69769	421.68533	13.61507	-777.28046	130.82391	-57.07069	-362.61334	112.62838	134.91360	
337	3.360	-519.04346	1395.57324	-194.15250	-552.83826	1614.31836	14.71333	-646.24341	1520.93091	-83.58119	-427.94168	1469.15173	-100.23800	-709.08527	1320.77148	134.54430	-381.50800	1333.19873	-0.08793	-595.76733	1203.25964	-48.96854	-526.76178	1382.92163	107.72769	-739.72961	988.15759	201.41086	-247.18700	1012.81982	-53.49634	-772.28577	796.70148	123.12001	-220.65694	881.19971	-237.22635	-672.29413	849.16467	18.42154	-465.86026	926.34814	156.88914	-446.23114	853.54199	-93.30878	-742.23853	454.08450	-32.50523	-436.57510	420.11246	9.60039	-787.28253	131.24913	-72.70580	-363.61798	112.95415	133.92146	
338	3.370	-522.41901	1393.89868	-201.68289	-557.93573	1612.87695	7.03360	-650.89911	1518.68713	-91.48898	-430.06915	1468.39844	-107.41597	-715.51392	1319.40332	124.91050	-386.77313	1332.27698	-5.23076	-600.18829	1201.73730	-56.43306	-532.72308	1381.61438	100.63499	-746.13550	985.95667	192.61958	-250.73100	1011.55157	-56.83583	-778.83606	795.25787	114.89208	-222.46489	879.10498	-239.85919	-677.32611	847.15106	9.33014	-472.53271	924.85413	150.16481	-450.19592	852.14136	-102.80266	-746.22357	452.07944	-39.37778	-439.31631	419.26675	4.12589	-795.84119	131.34306	-86.25163	-363.92041	113.38226	133.26816	
339	3.380	-525.87982	1392.22400	-208.98999	-563.61243	1611.37476	-0.95446	-655.46741	1517.20325	-100.04968	-434.50659	1465.96924	-111.83881	-722.08264	1317.88403	116.10534	-391.40604	1330.90015	-11.31783	-604.72040	1200.41223	-64.32267	-537.52600	1380.27722	92.62329	-752.46851	985.37128	183.63034	-254.93832	1009.84723	-60.35105	-784.11578	792.93884	106.62022	-225.04538	876.98755	-242.41692	-682.28229	845.05896	0.57894	-479.78064	922.99481	143.05367	-453.43588	850.00287	-105.99433	-750.62378	451.06158	-47.36087	-442.51184	418.32642	-0.29693	-802.58191	131.76451	-99.43624	-364.41373	114.40673	132.71603	
340	3.390	-529.02106	1389.88062	-215.85059	-568.89325	1610.09424	-9.00819	-659.43951	1515.65820	-108.89162	-438.69064	1464.81055	-118.72273	-728.05005	1316.47729	107.07709	-396.24384	1328.82520	-17.50068	-609.16333	1199.68921	-72.63901	-544.32397	1379.00854	85.24031	-758.97247	983.49982	175.15060	-259.60791	1008.01385	-63.19160	-789.99286	791.50983	97.78866	-227.45314	874.77698	-245.51611	-687.18872	843.21613	-8.95356	-487.23499	921.65784	137.30510	-456.72269	848.74670	-112.15863	-754.90350	449.20471	-56.26462	-444.99078	416.37259	-4.52782	-807.64471	130.89484	-109.14552	-365.56619	115.07197	131.24855	
341	3.400	-532.20673	1388.00000	-222.48697	-574.05798	1608.80603	-17.20442	-664.37689	1513.95349	-116.97060	-443.05121	1463.54041	-125.42333	-734.12207	1314.82373	98.11119	-401.52554	1327.78528	-22.15060	-613.93622	1198.45068	-81.40821	-550.76471	1377.12451	78.79625	-766.67218	982.33618	165.42657	-263.52997	1006.34216	-66.26606	-796.24469	789.57483	89.47253	-229.80667	871.83533	-246.53790	-692.27692	841.74762	-18.78660	-494.84140	919.93970	129.94121	-461.56976	846.90729	-120.79613	-758.50488	448.98502	-65.62312	-448.33319	415.49966	-10.00052	-810.89197	129.11578	-116.75206	-366.28204	115.10047	130.31969	
342	3.410	-535.80597	1386.45105	-229.80814	-579.25122	1607.48022	-25.16256	-668.64014	1512.69092	-125.61234	-447.19238	1462.06909	-132.26591	-740.70844	1313.78235	88.71462	-406.17230	1326.51709	-28.14692	-618.22571	1197.15259	-88.83044	-555.80475	1375.93152	71.44341	-773.62628	981.34882	156.24661	-268.62872	1005.14691	-69.66425	-802.34882	788.17719	79.97448	-232.59451	869.36066	-248.44417	-697.47485	840.24579	-27.55181	-501.79105	918.26855	122.64262	-465.80521	845.23114	-128.75638	-762.77948	447.40027	-75.60204	-452.80347	413.65598	-14.62634	-812.50006	126.37738	-123.17626	-366.99478	116.31596	128.41019	
